# xmcd CD database file
#
# Track frame offsets:
#	150
#	32608
#	62221
#	95044
#	124144
#	151945
#	189864
#	221793
#	253029
#
# Disc length: 3761 seconds
#
# Revision: 2
# Processed by: cddbd v1.5.2PL0 Copyright (c) Steve Scherf et al.
# Submitted via: CDex 1.81
#
DISCID=7c0eaf09
DTITLE=Various Artist - Ketuh Records - Hyperspatial Chrysalis
DYEAR=2005
DGENRE=Psychedelic Trance
TTITLE0=Psychoactive - Crazy Cabby
TTITLE1=Hefty Output - WTF rmx
TTITLE2=Psychophat - Life and Death rmx
TTITLE3=Sun Girl vs Iron Madness - Buddhist Pryamidi
TTITLE4=Pondscum - Style Stalker
TTITLE5=Paranoize - Deception
TTITLE6=Phonic Request vs Akhoa - Call 1334 rmx
TTITLE7=Psyboriginal - Spirited Away rmx
TTITLE8=Killer Buds - Biogenese
EXTD=YEAR: 2005
EXTT0=
EXTT1=
EXTT2=
EXTT3=
EXTT4=
EXTT5=
EXTT6=
EXTT7=
EXTT8=
PLAYORDER=
